<?xml version="1.0" encoding="utf-8"?>
<!-- Generator: Adobe Illustrator 13.0.0, SVG Export Plug-In . SVG Version: 6.00 Build 14948)  -->
<!DOCTYPE svg PUBLIC "-//W3C//DTD SVG 1.1 Tiny//EN" "http://www.w3.org/Graphics/SVG/1.1/DTD/svg11-tiny.dtd">
<svg version="1.1" baseProfile="tiny" id="Layer_1" xmlns="http://www.w3.org/2000/svg" xmlns:xlink="http://www.w3.org/1999/xlink"
	 x="0px" y="0px" width="175.333px" height="91.333px" viewBox="0.625 -0.07 175.333 91.333" xml:space="preserve">
<path fill="#010101" d="M175.5,1.282H1v90h174.5V1.282z M170.898,86.762H5.608V5.796H170.9v80.966H170.898z"/>
<path id="path5" d="M38.728,76.343c-0.251,0.426-0.675,0.679-1.433,0.679H20.664c-0.675,0-1.518-0.171-1.098-1.621l0.507-1.621
	c0.337-1.104,1.013-1.191,1.603-1.363c2.111-0.421,4.307-1.961,4.307-5.625V27.759c-1.52-1.791-4.812-4.263-7.767-5.54
	c-1.604-0.599-1.773-1.364-1.433-2.216l0.676-1.962c0.254-0.341,0.675-0.681,1.436-0.681h21.188c2.11,0.171,3.207,1.705,4.725,3.495
	L70.55,55.29h0.168V27.588c0-4.178-1.264-4.773-5.402-5.795c-1.096-0.17-1.266-1.024-0.93-1.791l0.678-1.962
	c0.252-0.428,0.675-0.682,1.432-0.682h16.628c0.675,0,1.521,0.17,1.099,1.62l-0.505,1.621c-0.338,1.107-1.013,1.193-1.606,1.363
	c-2.11,0.425-4.306,1.963-4.306,5.625v46.624c0,1.708-0.761,2.812-2.28,2.812h-9.791c-0.421,0-0.928-0.597-3.545-3.833
	L33.241,33.727h-0.168v33.07c0,4.179,1.264,4.772,5.404,5.793c1.095,0.168,1.264,1.023,0.926,1.793L38.728,76.343z"/>
<path fill="#010101" d="M85.783,70.239l-0.087,6.885c6.418-0.358,30.229-0.358,37.276,0l-0.181-6.791
	c-10.428,0.26-9.449-1.949-9.449-5.029V51.719l12.927,14.812c2.496,2.829,4.553,6.352,7.047,10.411
	c23.808,0,26.744,0.181,26.744,0.181v-6.619c-7.658-0.703-8.914-1.408-11.584-4.5l-16.498-19.131
	c10.256-1.241,16.679-6.531,16.584-15.086c-0.086-14.99-13.905-14.375-28.533-14.638c-4.903-0.093-28.086,0.084-34.333,0.084
	l0.087,6.879c9.542,0,8.741,0.879,8.741,4.586v36.603C94.524,67.682,95.77,70.946,85.783,70.239z M113.34,24.648
	c1.424-0.093,2.676-0.27,4.012-0.27c7.041,0,11.502,2.649,11.502,8.382h-0.09c0.09,7.843-6.604,10.143-15.424,10.404V24.648
	L113.34,24.648z"/>
</svg>
